<?xml version="1.0" encoding="UTF-8" standalone="no"?>
<!DOCTYPE svg PUBLIC "-//W3C//DTD SVG 1.1//EN" "http://www.w3.org/Graphics/SVG/1.1/DTD/svg11.dtd">
<svg width="100%" height="100%" viewBox="0 0 5686 8625" version="1.1" xmlns="http://www.w3.org/2000/svg" xmlns:xlink="http://www.w3.org/1999/xlink" xml:space="preserve" xmlns:serif="http://www.serif.com/" style="fill-rule:evenodd;clip-rule:evenodd;stroke-linejoin:round;stroke-miterlimit:2;">
    <g transform="matrix(4.16667,0,0,4.16667,-7573.83,-4020.83)">
        <path d="M2723.15,1918.4C2722.89,1918.86 2723.19,1919.46 2723.72,1919.52C2743.21,1921.94 2763.84,1919.21 2780.54,1908.36C2806.02,1891.89 2824.49,1866.7 2839.07,1840.49C2839.37,1839.96 2838.93,1839.31 2838.33,1839.37C2790.02,1844.46 2746.42,1876.28 2723.15,1918.4ZM2161.56,1839.35C2176.06,1868.78 2196.67,1897.55 2227.09,1911.99C2242.63,1919.84 2260.38,1921.39 2277.51,1919.89C2278.06,1919.84 2278.38,1919.21 2278.08,1918.74C2252.65,1877.69 2211.52,1842.53 2161.56,1839.35ZM1905.37,969.16C1922.78,958.839 1948.61,968.611 1953.4,988.672C1957.71,1006.08 1945.31,1021.13 1938.71,1036.15C1930.81,1052.86 1921.95,1069.19 1916.24,1086.84C1904.27,1125.41 1891.29,1164.07 1887.29,1204.46C1881.16,1261.5 1882.77,1320.77 1902.56,1375.22C1908.81,1392.54 1915.04,1410.06 1924.25,1426.06C1924.62,1426.7 1925.6,1426.45 1925.64,1425.72C1929.17,1354.19 1949.25,1284.22 1978.04,1218.94C1989.49,1191.91 2004.21,1166.42 2019.54,1141.47C2028.12,1129.1 2036.58,1113.59 2052.7,1110.45C2073.78,1105.99 2096.2,1126.83 2090.64,1148.3C2090.63,1148.35 2090.61,1148.39 2090.6,1148.44C2082.93,1167.82 2067.62,1182.9 2058.59,1201.62C2050.04,1219.61 2039.63,1236.71 2032.79,1255.49C2025.77,1273.9 2016.7,1291.55 2011.82,1310.73C2000.94,1346.73 1991.05,1383.43 1989.31,1421.2C1986.2,1464.26 2001.65,1508.32 2031.48,1539.62C2067.14,1578.95 2116.43,1602.64 2166.26,1618.64C2199.32,1628.83 2233.1,1637.51 2267.72,1640.06C2268.24,1640.1 2268.65,1639.6 2268.51,1639.1C2263.52,1621.49 2254.46,1605.41 2248.95,1587.98C2230.14,1532.47 2217.16,1474.12 2218.87,1415.22C2219.58,1397.63 2214.87,1376.62 2228.77,1362.79C2244.24,1346.86 2274.46,1354.99 2279.93,1376.51C2279.94,1376.54 2279.95,1376.58 2279.95,1376.61C2282.63,1392.44 2280.22,1408.61 2281.41,1424.56C2284.74,1481.17 2300.74,1536.29 2321.47,1588.78C2344.37,1650.15 2376.5,1707.8 2396.28,1770.4C2402.49,1788.28 2405.91,1806.97 2411.64,1824.99C2411.76,1825.37 2412.16,1825.59 2412.54,1825.5C2431.73,1820.64 2450.69,1814.53 2470.42,1812.26C2490.76,1809.73 2511.28,1810.83 2531.67,1812.11C2551.22,1813.23 2569.52,1820.75 2588.07,1826.41C2588.45,1826.52 2588.86,1826.32 2589,1825.95C2595.77,1807.86 2599.6,1788.86 2605.87,1770.58C2623.13,1716.05 2649.2,1664.93 2670.55,1611.98C2696.75,1550.61 2716.87,1485.54 2719.89,1418.48C2721.05,1399.92 2715.5,1377.96 2729.36,1362.79C2746.67,1344.8 2782.37,1357.41 2783.41,1382.82C2787.04,1447.34 2775.86,1512.01 2756.84,1573.54C2750.05,1596.1 2740.07,1617.54 2732.51,1639.8C2732.33,1640.31 2732.76,1640.84 2733.3,1640.79C2797.94,1634.45 2862.03,1615.6 2917.7,1581.66C2953.03,1559.89 2984.33,1529.23 3001,1490.73C3016.2,1454.82 3012.51,1414.57 3006.31,1377.08C2991.07,1302.51 2962.28,1230.54 2919.93,1167.21C2912.9,1157.13 2906.89,1144.65 2911.13,1132.19C2915.68,1113.8 2938.92,1104.37 2955.35,1113.35C2971.56,1121.56 2979.26,1139.06 2988.72,1153.56C3015.47,1195.97 3034.56,1242.63 3050.59,1289.96C3064.82,1333.68 3073.08,1379.22 3075.31,1425.14C3075.35,1425.91 3076.38,1426.12 3076.71,1425.43C3098.75,1379.69 3115.61,1330.3 3116.45,1279.09C3120.42,1188.68 3094.65,1098.75 3053,1019.08C3046.37,1006.44 3043.14,989.893 3053.03,977.985C3065.7,958.9 3098.1,961.832 3107.66,982.504C3147.1,1056.85 3174.37,1138.46 3181.64,1222.58L3181.64,1222.63C3182.87,1268.39 3183.5,1314.89 3172.18,1359.61C3165.25,1385.9 3158.25,1412.5 3145.67,1436.74C3137.83,1452.29 3131.66,1468.77 3121.46,1483C3111.63,1496.74 3104.57,1512.38 3093.34,1525.14C3074.71,1547.07 3056.45,1569.45 3035.08,1588.81C2976.33,1641.76 2902.67,1675.68 2826.52,1695.07C2789.57,1706.31 2748.23,1709.88 2717.42,1735.35C2685.88,1761.97 2666.76,1800.63 2657.26,1840.26C2652.52,1860.92 2656.47,1884.81 2672.17,1900.01C2672.45,1900.29 2672.92,1900.3 2673.22,1900.03C2687.5,1887.22 2696.51,1869.89 2709.69,1856.11C2729.66,1834.65 2753.15,1815.68 2780.63,1804.84C2800.05,1797.21 2820.47,1792.32 2841.06,1789.09C2882.9,1783.63 2925.07,1780.25 2967.3,1780.83C2967.77,1780.84 2968.12,1781.27 2968.03,1781.73C2958.45,1830.99 2936.53,1877.84 2904.72,1916.72C2881.88,1946.1 2850.28,1968.69 2814.49,1979.26C2787.1,1987.5 2758.03,1987.53 2729.85,1984.51C2712.56,1982.74 2695.37,1979.6 2677.97,1979.93C2637.2,1980.11 2596.2,1999.87 2572.87,2033.7C2562.97,2048.3 2554.42,2064.21 2550.54,2081.55C2547.31,2096.08 2545.54,2110.87 2543.26,2125.58C2543.19,2126.03 2542.73,2126.31 2542.3,2126.17C2528.89,2121.85 2515.29,2117.13 2501.05,2117.37C2486.89,2116.8 2473.26,2121.11 2460.09,2125.79C2459.64,2125.95 2459.17,2125.65 2459.12,2125.18C2456.21,2097.28 2451.33,2068.67 2436.89,2044.21C2418.48,2011.72 2385.17,1989.28 2348.56,1982.68C2308.77,1973.85 2268.98,1989.06 2228.98,1985.79C2189.1,1984.48 2149.13,1970.34 2119.67,1942.95C2080.37,1907.81 2053.98,1859.96 2039.14,1809.76C2036.14,1800.17 2033.98,1790.32 2033.22,1780.32C2033.19,1779.87 2033.56,1779.49 2034.01,1779.52C2078.19,1781.99 2122.57,1783.17 2166.44,1789.58C2214.78,1797.24 2261.44,1820.14 2293.17,1858C2305.34,1870.81 2314,1886.38 2325.96,1899.32C2326.23,1899.61 2326.7,1899.64 2327.01,1899.4C2341.07,1888.17 2346.67,1869.56 2344.71,1852.05C2341.38,1820.54 2327.27,1791.16 2309.81,1765.09C2297.5,1747.22 2282.2,1730.83 2262.54,1721.09C2241.13,1710.49 2217.32,1706.37 2194.35,1700.47C2142.38,1686.86 2090.6,1670.37 2043.82,1643.5C1924.85,1578.03 1837.4,1454.94 1821.28,1319.4C1807.66,1211.79 1834.28,1102.69 1881.28,1006.11C1887.93,993.13 1892.3,977.344 1905.37,969.16Z" style="fill:rgb(3,4,5);fill-rule:nonzero;"/>
    </g>
    <g transform="matrix(4.16667,0,0,4.16667,-7573.83,-4020.83)">
        <path d="M2484.86,2350.77C2494.72,2353.96 2505.23,2352.77 2515.45,2352.21C2516.09,2352.17 2516.38,2351.41 2515.92,2350.96C2511.02,2346.16 2505.89,2339.92 2498.59,2340.27C2498.48,2340.27 2498.37,2340.3 2498.27,2340.34C2493.21,2342.52 2488.92,2346.06 2484.64,2349.46C2484.17,2349.83 2484.3,2350.59 2484.86,2350.77ZM2259.97,2015.84C2276.77,2022.01 2291.73,2033.58 2300.74,2049.18C2307.15,2060.6 2305.47,2074.19 2306.84,2086.74C2309.29,2120.73 2322.14,2153.8 2343,2180.76C2358.48,2201.83 2377.41,2220.52 2389.87,2243.75C2400.25,2262.5 2407.15,2282.9 2417.41,2301.71C2424.44,2314.47 2434.97,2326.66 2449.5,2330.72C2462.79,2333.67 2479.14,2328.15 2485.28,2315.42C2485.31,2315.36 2485.33,2315.3 2485.35,2315.24C2487.89,2305.14 2489.05,2292.1 2480.41,2284.55C2466.6,2270.9 2451.73,2257.71 2441.81,2240.82C2438.05,2235.28 2439.33,2228.63 2440.19,2222.49C2440.23,2222.21 2440.42,2221.98 2440.68,2221.89C2473.05,2210.44 2508.69,2210.2 2542.09,2216.85C2542.11,2216.85 2542.13,2216.86 2542.14,2216.86C2550.48,2219.15 2564.1,2221.6 2562.21,2233.28C2558.76,2246.41 2547.64,2255.69 2539.03,2265.62C2528.77,2276.85 2510.79,2285.83 2513.29,2303.76C2512.62,2326.47 2541.05,2338.29 2559.43,2328.58C2569.78,2323.11 2578.27,2314.35 2583.92,2304.09C2598.21,2278.23 2606.49,2249.22 2623.49,2224.79C2640.93,2198.68 2664.59,2176.73 2677.94,2147.97C2688.44,2126.16 2693.11,2101.89 2693.48,2077.8C2693.79,2067.48 2693.85,2056.45 2699.71,2047.51C2708.82,2033.28 2722.94,2022.77 2738.39,2016.26C2738.87,2016.06 2739.42,2016.42 2739.44,2016.94C2739.98,2034.16 2739.22,2051.38 2739.22,2068.6C2739.25,2099.9 2731.07,2130.59 2720.11,2159.72C2713.91,2176.91 2704.23,2193.34 2703.71,2212.06C2700.11,2271.39 2699.31,2331.48 2710.61,2390.11C2717.94,2432.34 2729.48,2473.93 2746.34,2513.38C2751.05,2524.19 2756.92,2534.53 2760.07,2546C2760.17,2546.33 2760.01,2546.69 2759.71,2546.85C2744.16,2555.26 2730.28,2566.95 2713.32,2572.52C2712.99,2572.63 2712.62,2572.49 2712.43,2572.19C2680.63,2520.02 2658.57,2462.13 2647,2402.17C2641.75,2370.04 2638.51,2337.61 2637.57,2305.07C2637.55,2304.36 2636.64,2304.08 2636.23,2304.65C2620.26,2327.04 2606.37,2351.38 2584.96,2369.22C2538.79,2412.43 2458.12,2412.49 2413.75,2366.57C2393.03,2347.18 2379.74,2321.89 2362.99,2299.35C2362.56,2298.77 2361.65,2299.09 2361.66,2299.81C2362.84,2395.53 2337.32,2491.41 2287.86,2573.42C2287.67,2573.74 2287.25,2573.87 2286.9,2573.72C2270.46,2566.4 2255.5,2556.29 2241.3,2545.33C2241.04,2545.12 2240.94,2544.77 2241.07,2544.46C2252.38,2515.88 2265.4,2487.88 2273.75,2458.23C2299.03,2377.96 2303.67,2292.4 2296.37,2208.97C2295.3,2188.52 2283.09,2171.23 2277.07,2152.18C2260.28,2108.91 2259.15,2061.67 2259.97,2015.84Z" style="fill:rgb(3,4,5);fill-rule:nonzero;"/>
    </g>
    <g transform="matrix(4.16667,0,0,4.16667,-7573.83,-4020.83)">
        <path d="M2327.57,2021.19C2327.45,2020.71 2327.82,2020.26 2328.32,2020.28C2343.62,2020.95 2359.64,2023.36 2372.4,2032.42C2387.89,2044.13 2396.55,2063.99 2394.39,2083.33C2394.36,2083.65 2394.12,2083.92 2393.8,2083.99C2376.3,2087.84 2353.83,2087.86 2342.94,2071.09C2342.92,2071.06 2342.9,2071.03 2342.88,2071C2334.63,2055.61 2331.68,2038.05 2327.57,2021.19Z" style="fill:rgb(3,4,5);fill-rule:nonzero;"/>
    </g>
    <g transform="matrix(4.16667,0,0,4.16667,-7573.83,-4020.83)">
        <path d="M2624.17,2036.09C2637.48,2025.17 2655.15,2021.82 2671.83,2019.83C2672.3,2019.77 2672.71,2020.17 2672.67,2020.64C2671.5,2034.26 2666.99,2047.28 2663.46,2060.42C2660.9,2070.59 2653.69,2079.57 2643.65,2083.08C2632.39,2087.91 2620.04,2085.6 2608.43,2083.67C2608.08,2083.61 2607.82,2083.31 2607.81,2082.96C2607.24,2066.11 2610.77,2047.52 2624.17,2036.09Z" style="fill:rgb(3,4,5);fill-rule:nonzero;"/>
    </g>
    <g transform="matrix(4.16667,0,0,4.16667,-7573.83,-4020.83)">
        <path d="M1886.9,2549.06C1886.82,2548.61 1887.17,2548.19 1887.63,2548.18C1971.95,2547.64 2056.33,2548.34 2140.64,2547.88C2151.6,2548.19 2163.73,2545.44 2173.53,2551.79C2191.82,2562.66 2208.89,2575.46 2226.84,2586.85C2307.41,2638.49 2388.01,2690.13 2469,2741.08C2469.45,2741.37 2469.46,2742.03 2469.02,2742.33C2423.23,2773.25 2375.53,2801.22 2329.01,2831C2274.15,2864.48 2221.02,2900.85 2165.32,2932.91C2165.07,2933.05 2164.77,2933.04 2164.53,2932.89C2123.57,2905.69 2084.32,2875.6 2050.23,2840.01C2004.12,2791.98 1964.03,2737.84 1933.92,2678.36C1913.41,2637.34 1894.98,2594.42 1886.9,2549.06Z" style="fill:rgb(3,4,5);fill-rule:nonzero;"/>
    </g>
    <g transform="matrix(4.16667,0,0,4.16667,-7573.83,-4020.83)">
        <path d="M2824.11,2553.72C2830.46,2549.23 2838.15,2547.55 2845.88,2547.94C2934.92,2548.37 3023.99,2547.55 3113.05,2548.27C3113.53,2548.28 3113.88,2548.72 3113.78,2549.18C3100.03,2611.99 3072.35,2670.86 3038.74,2725.35C3031.5,2739 3022.59,2751.61 3013.03,2763.71C2964.96,2830.88 2904.86,2889.99 2834.28,2933.24C2834.03,2933.39 2833.73,2933.38 2833.49,2933.23C2777.95,2898.13 2722.81,2862.44 2666.88,2828.01C2622.24,2798.5 2575.58,2772.19 2531.99,2741.11C2531.57,2740.8 2531.58,2740.16 2532.03,2739.88C2587.25,2704.85 2641.73,2668.61 2697.57,2634.51C2739.83,2607.7 2782.25,2581.14 2824.11,2553.72Z" style="fill:rgb(3,4,5);fill-rule:nonzero;"/>
    </g>
    <g transform="matrix(4.16667,0,0,4.16667,-7573.83,-4020.83)">
        <path d="M2411.21,2830.73C2440.67,2811.73 2469.77,2792.12 2500.13,2774.56C2500.38,2774.42 2500.68,2774.43 2500.91,2774.58C2585.55,2829.51 2671.5,2882.32 2756.32,2936.99C2766.89,2944.22 2777.93,2950.84 2788.05,2958.73C2788.49,2959.07 2788.41,2959.74 2787.92,2959.98C2772.88,2967.28 2758.31,2975.46 2743.28,2982.79C2685.2,3009.36 2622.76,3026.4 2559.16,3032.5C2491.73,3037.85 2423.15,3035.25 2357.41,3018.4C2307.56,3005.14 2258.43,2987.21 2214.34,2960.11C2213.92,2959.85 2213.86,2959.24 2214.22,2958.9C2228.41,2945.51 2245.9,2936.48 2262.08,2925.85C2311.73,2894.06 2361.38,2862.24 2411.21,2830.73Z" style="fill:rgb(3,4,5);fill-rule:nonzero;"/>
    </g>
    <g transform="matrix(23.2852,0,0,16.1438,-177.5,5032.43)">
        <path d="M20,16C20,12.672 22.672,10 25.938,10L59.403,10C59.285,11.215 59.266,12.563 59.242,14.043C59.164,19.375 59.059,26.426 54.438,35.055C47.621,47.793 49.203,59.418 49.844,64.106C49.961,64.977 50.047,65.61 50.043,65.965C50.024,67.071 50.902,67.981 52.008,68.001C53.109,68.02 54.023,67.141 54.043,66.036C54.055,65.34 53.93,64.36 53.777,63.13C53.129,57.919 51.918,48.239 57.965,36.946C63.109,27.336 63.207,18.969 63.274,13.669C63.285,12.508 63.297,11.501 63.359,10.653C65.281,11.641 66.606,13.661 66.606,16.001L66.606,21.497C66.606,25.407 71,27.755 74.227,25.466C76.633,23.759 80,25.473 80,28.505L80,35.087C80,36.946 79.149,38.696 77.703,39.829L70.434,45.524C68.016,47.423 66.606,50.333 66.606,53.415L66.449,90.013L41.301,90.001C40.196,87.774 38.957,75.56 38.52,60.376C38.133,46.853 33.86,34.009 31.739,29.192C31.293,28.184 30.11,27.723 29.102,28.172C28.09,28.618 27.633,29.797 28.079,30.809C30.047,35.278 34.153,47.606 34.524,60.489C34.887,73.184 35.805,86.735 36.969,90.001L20,89.73L20,16Z" style="fill:rgb(3,4,5);fill-rule:nonzero;"/>
    </g>
</svg>
