<?xml version="1.0" encoding="UTF-8" standalone="no"?>
<!DOCTYPE svg PUBLIC "-//W3C//DTD SVG 1.1//EN" "http://www.w3.org/Graphics/SVG/1.1/DTD/svg11.dtd">
<svg width="100%" height="100%" viewBox="0 0 683 228" version="1.1" xmlns="http://www.w3.org/2000/svg" xmlns:xlink="http://www.w3.org/1999/xlink" xml:space="preserve" xmlns:serif="http://www.serif.com/" style="fill-rule:evenodd;clip-rule:evenodd;stroke-linejoin:round;stroke-miterlimit:2;">
    <g transform="matrix(1,0,0,1,-86.6024,-114.21)">
        <path d="M276.509,114.21L282.85,176.288L277.51,176.288C271.725,157.153 263.131,143.052 251.728,133.985C240.324,124.918 225.5,120.385 207.255,120.385L197.91,120.385C183.336,120.385 173.017,123.194 166.954,128.812C160.891,134.43 157.859,143.803 157.859,156.931L157.859,213.669L180.054,213.669C196.853,213.669 209.09,211.027 216.767,205.742C224.443,200.458 229.728,190.918 232.62,177.123L237.626,177.123L237.626,261.563L232.62,261.563C230.395,250.438 227.419,241.955 223.692,236.114C219.965,230.273 214.736,226.157 208.006,223.765C201.275,221.373 192.125,220.177 180.554,220.177L157.859,220.177L157.859,292.435C157.859,303.449 158.888,311.876 160.946,317.717C163.004,323.558 166.62,327.646 171.793,329.983C176.967,332.319 184.226,333.487 193.571,333.487L208.924,333.487C224.054,333.487 238.405,328.814 251.978,319.469C266.997,309.012 281.738,294.438 296.2,275.747L297.535,273.912L303.376,273.912L283.685,341.998L86.602,341.998L86.602,336.825C98.618,334.822 107.351,330.205 112.802,322.974C117.03,317.634 119.143,307.009 119.143,291.1L119.143,165.108C119.143,154.984 118.587,147.641 117.475,143.08C116.362,138.519 114.304,134.625 111.3,131.398C105.738,125.168 97.505,121.163 86.602,119.383L86.602,114.21L276.509,114.21ZM263.993,120.385L239.963,120.385C246.193,122.943 251.199,125.725 254.982,128.728C258.764,131.732 262.992,136.349 267.664,142.579L263.993,120.385ZM225.611,206.493C222.496,209.386 220.077,211.361 218.352,212.417C216.628,213.474 213.04,215.06 207.589,217.173C213.819,218.953 219.826,222.569 225.611,228.02L225.611,206.493ZM271.836,333.487L281.181,302.448C277.176,306.898 273.199,310.931 269.25,314.546C265.3,318.162 260.85,321.583 255.9,324.809C250.949,328.036 245.915,330.928 240.797,333.487L271.836,333.487ZM109.965,333.487L158.693,333.487L152.185,328.648C148.403,325.866 145.983,323.641 144.926,321.972C143.869,320.304 143.341,317.801 143.341,314.463C143.341,312.683 143.313,311.487 143.257,310.875C143.202,310.263 143.174,309.624 143.174,308.956L143.174,147.252C143.174,146.584 143.202,145.917 143.257,145.249C143.313,144.582 143.341,143.414 143.341,141.745C143.341,138.407 143.925,135.821 145.093,133.985C146.261,132.149 148.625,130.008 152.185,127.56L161.697,120.551L106.961,120.551L116.473,127.56C120.256,130.342 122.676,132.567 123.733,134.235C124.79,135.904 125.318,138.407 125.318,141.745C125.429,143.636 125.485,145.472 125.485,147.252L125.485,308.956C125.485,310.736 125.429,312.572 125.318,314.463C125.318,317.912 124.817,320.443 123.816,322.056C122.815,323.669 120.367,325.866 116.473,328.648L109.965,333.487Z" style="fill-rule:nonzero;"/>
        <path d="M419.356,114.21L419.356,119.383C406.006,121.386 396.383,125.947 390.486,133.067C387.816,136.294 385.953,140.299 384.896,145.082C383.839,149.866 383.31,156.541 383.31,165.108L383.31,292.435C383.31,300.779 383.783,307.343 384.729,312.127C385.675,316.911 387.371,320.86 389.819,323.975C394.825,330.316 404.337,333.487 418.355,333.487L421.859,333.487C429.313,333.487 436.6,332.347 443.72,330.066C450.84,327.785 458.099,324.114 465.498,319.052C472.896,313.99 480.405,307.621 488.026,299.945C495.647,292.268 503.462,283.201 511.472,272.744L516.646,272.744L496.62,341.998L312.054,341.998L312.054,336.825C324.069,334.822 332.802,330.205 338.254,322.974C342.481,317.634 344.595,307.009 344.595,291.1L344.595,165.108C344.595,154.984 344.039,147.641 342.926,143.08C341.814,138.519 339.755,134.625 336.752,131.398C331.189,125.168 322.956,121.163 312.054,119.383L312.054,114.21L419.356,114.21ZM484.772,333.487L493.783,302.448C482.881,315.464 469.92,325.811 454.901,333.487L484.772,333.487ZM335.417,333.487L384.145,333.487L377.637,328.648C373.854,325.866 371.434,323.641 370.377,321.972C369.321,320.304 368.792,317.801 368.792,314.463C368.792,312.683 368.764,311.487 368.709,310.875C368.653,310.263 368.625,309.624 368.625,308.956L368.625,147.252C368.625,146.584 368.653,145.917 368.709,145.249C368.764,144.582 368.792,143.414 368.792,141.745C368.792,138.407 369.376,135.821 370.544,133.985C371.713,132.149 374.077,130.008 377.637,127.56L387.149,120.551L332.58,120.551L341.925,127.56C345.819,130.342 348.266,132.511 349.267,134.068C350.269,135.626 350.769,138.185 350.769,141.745C350.881,143.636 350.936,145.472 350.936,147.252L350.936,308.956C350.936,310.736 350.881,312.572 350.769,314.463C350.769,317.912 350.269,320.443 349.267,322.056C348.266,323.669 345.819,325.866 341.925,328.648L335.417,333.487Z" style="fill-rule:nonzero;"/>
        <path d="M621.111,219.677L591.073,248.713L591.073,291.1C591.073,300.668 591.657,307.788 592.825,312.46C593.993,317.133 596.246,321.305 599.584,324.976C605.48,331.095 614.269,335.045 625.95,336.825L625.95,341.998L519.816,341.998L519.816,336.825C531.831,334.822 540.565,330.205 546.016,322.974C550.244,317.634 552.357,307.009 552.357,291.1L552.357,165.108C552.357,154.984 551.801,147.641 550.689,143.08C549.576,138.519 547.518,134.625 544.514,131.398C538.952,125.168 530.719,121.163 519.816,119.383L519.816,114.21L623.781,114.21L623.781,119.383C611.766,121.386 602.977,126.003 597.414,133.234C595.189,136.127 593.576,139.993 592.575,144.832C591.574,149.672 591.073,156.43 591.073,165.108L591.073,239.702L656.656,175.788C664.777,168 670.423,161.603 673.594,156.597C676.765,151.591 678.35,146.696 678.35,141.912C678.35,135.57 676.069,130.397 671.508,126.392C666.947,122.387 660.883,120.051 653.318,119.383L653.318,114.21L745.601,114.21L745.601,119.05C726.577,124.39 704.939,138.63 680.686,161.77L664.499,177.29L660.828,180.794L649.647,191.975L718.234,295.105C718.901,295.995 719.485,296.774 719.986,297.442C720.486,298.109 721.015,298.888 721.571,299.778L734.421,317.634C739.983,324.309 745.407,329.065 750.691,331.902C755.976,334.739 762.178,336.38 769.298,336.825L769.298,341.998L660.828,341.998L660.828,336.825C669.617,336.38 675.708,335.1 679.101,332.986C682.494,330.873 684.191,327.313 684.191,322.306C684.191,319.302 683.523,316.215 682.188,313.045C680.853,309.874 678.239,305.452 674.345,299.778L621.111,219.677ZM625.783,215.171L678.517,294.438C683.857,302.67 687.361,308.483 689.03,311.876C690.699,315.27 691.533,318.301 691.533,320.971C691.533,325.31 689.364,329.482 685.025,333.487L733.253,333.487C727.245,329.259 722.517,324.921 719.068,320.471L709.222,307.788C705.885,303.338 704.216,301.113 704.216,301.113L638.8,202.321L625.783,215.171ZM683.356,146.251C693.258,136.572 703.493,127.95 714.062,120.385L672.843,120.385C680.297,126.17 684.024,132.956 684.024,140.744C684.024,141.3 683.801,143.135 683.356,146.251ZM543.179,333.487L591.907,333.487L585.399,328.648C581.617,325.866 579.197,323.641 578.14,321.972C577.083,320.304 576.555,317.801 576.555,314.463C576.555,312.683 576.527,311.487 576.471,310.875C576.416,310.263 576.388,309.624 576.388,308.956L576.388,147.252C576.388,146.584 576.416,145.917 576.471,145.249C576.527,144.582 576.555,143.414 576.555,141.745C576.555,138.407 577.139,135.821 578.307,133.985C579.475,132.149 581.839,130.008 585.399,127.56L594.911,120.551L540.175,120.551L549.687,127.56C553.581,130.342 556.029,132.511 557.03,134.068C558.031,135.626 558.532,138.185 558.532,141.745C558.643,143.636 558.699,145.472 558.699,147.252L558.699,308.956C558.699,310.736 558.643,312.572 558.532,314.463C558.532,317.912 558.031,320.443 557.03,322.056C556.029,323.669 553.581,325.866 549.687,328.648L543.179,333.487Z" style="fill-rule:nonzero;"/>
    </g>
</svg>
